<?xml version="1.0" encoding="utf-8"?>
<!-- Generator: Adobe Illustrator 25.3.0, SVG Export Plug-In . SVG Version: 6.00 Build 0)  -->
<svg version="1.1" id="Capa_1" xmlns="http://www.w3.org/2000/svg" xmlns:xlink="http://www.w3.org/1999/xlink" x="0px" y="0px"
	 viewBox="0 0 300 300" style="enable-background:new 0 0 300 300;" xml:space="preserve">
<style type="text/css">
	.st0{fill:#D4605E;}
</style>
<g>
	<path class="st0" d="M230.1,51.9L230.1,51.9c-9.9,0-18,8.1-18,18s8.1,18,18,18s18-8.1,18-18S240,51.9,230.1,51.9L230.1,51.9z
		 M299.1,88.2c-0.3-12.4-2.6-24.8-6.9-36.5c-3.8-10-9.8-19.1-17.4-26.6c-7.4-7.7-16.5-13.6-26.6-17.3c-11.7-4.4-24-6.8-36.5-7.1
		C195.9,0,190.8,0,150,0s-45.9,0-61.8,0.9c-12.5,0.3-24.8,2.6-36.4,7c-10,3.7-19.1,9.6-26.5,17.3C17.5,32.6,11.6,41.7,8,51.8
		c-4.4,11.7-6.8,24-7.1,36.5C0,104.1,0,109.2,0,150s0,45.9,0.9,61.8c0.3,12.5,2.6,24.8,7.1,36.5c3.7,10,9.6,19.1,17.2,26.6
		c7.5,7.7,16.5,13.6,26.6,17.3c11.7,4.4,24,6.8,36.5,7c15.9,0.9,21,0.9,61.8,0.9s45.9,0,61.8-0.9c12.5-0.3,24.8-2.6,36.5-7.1
		c10-3.7,19.1-9.6,26.6-17.2c7.7-7.5,13.6-16.5,17.4-26.6c4.3-11.7,6.6-24,6.9-36.5c0-15.9,0.9-21,0.9-61.8S300,104.1,299.1,88.2z
		 M272.1,210c-0.1,9.5-1.8,19-5.1,27.9c-2.4,6.5-6.2,12.4-11.3,17.2c-4.9,5-10.8,8.8-17.3,11.3c-8.9,3.3-18.4,5-27.9,5.1
		c-15,0.7-20.6,0.9-60,0.9s-45,0-60-0.9c-9.9,0.2-19.7-1.3-29.1-4.5c-6.2-2.6-11.8-6.4-16.5-11.3c-5-4.8-8.8-10.7-11.1-17.3
		c-3.7-9.1-5.7-18.7-6-28.5c0-15-0.9-20.6-0.9-60s0-45,0.9-60c0.1-9.7,1.8-19.4,5.3-28.5c2.6-6.3,6.7-12,11.8-16.5
		c4.6-5.2,10.2-9.3,16.5-12c9.1-3.3,18.8-5,28.5-5.1c15,0,20.6-0.9,60-0.9s45,0,60,0.9c9.5,0.1,19,1.8,27.9,5.1
		c6.8,2.5,12.9,6.6,17.8,12c4.9,4.6,8.8,10.2,11.3,16.5c3.3,9.1,5.1,18.8,5.1,28.5c0.8,15,0.9,20.5,0.9,60S272.9,195,272.1,210z
		 M150,73.1c-42.5,0.1-76.9,34.6-76.8,77.1s34.6,76.9,77.1,76.8c42.4-0.1,76.8-34.5,76.8-76.9c0.1-42.4-34.2-76.9-76.6-77
		C150.3,73,150.2,73,150,73.1z M150,200c-27.6,0-49.9-22.4-49.9-50s22.4-49.9,49.9-49.9s50,22.4,50,49.9l0,0
		C200,177.6,177.6,200,150,200z"/>
</g>
</svg>
