<?xml version="1.0" encoding="utf-8"?>
<!-- Generator: Adobe Illustrator 25.3.0, SVG Export Plug-In . SVG Version: 6.00 Build 0)  -->
<svg version="1.1" id="Capa_1" xmlns="http://www.w3.org/2000/svg" xmlns:xlink="http://www.w3.org/1999/xlink" x="0px" y="0px"
	 viewBox="0 0 300 300" style="enable-background:new 0 0 300 300;" xml:space="preserve">
<style type="text/css">
	.st0{fill:#FFFFFF;}
</style>
<g>
	<path class="st0" d="M299.8,57.3c-11.3,4.9-23.2,8.1-35.4,9.6c12.9-7.7,22.5-19.8,27.1-34c-12.1,7.2-25.3,12.3-39.1,15
		c-23-24.9-61.8-26.5-86.8-3.5c-16.4,15.1-23.3,37.9-18.1,59.5C98.2,101.4,52.2,78,21,39.6c-5.4,9.4-8.2,20.1-8.2,31
		c0,20.5,10.2,39.7,27.3,51.1c-9.8-0.3-19.3-2.9-27.9-7.6v0.7C12.3,144,33,169,61.6,174.7c-5.3,1.6-10.9,2.5-16.5,2.5
		c-3.9,0-7.7-0.4-11.5-1c8.1,25,31.1,42,57.4,42.5c-21.6,17-48.3,26.3-75.8,26.4c-5,0-10-0.3-15-0.9C28.3,262.3,61,272,94.4,271.9
		c95.9,1,174.4-75.9,175.4-171.8c0-1.1,0-2.1,0-3.2c0-2.5,0-5.2,0-7.9C281.6,80.3,291.7,69.5,299.8,57.3z"/>
</g>
</svg>
