<?xml version="1.0" encoding="utf-8"?>
<!-- Generator: Adobe Illustrator 25.3.0, SVG Export Plug-In . SVG Version: 6.00 Build 0)  -->
<svg version="1.1" id="Capa_1" xmlns="http://www.w3.org/2000/svg" xmlns:xlink="http://www.w3.org/1999/xlink" x="0px" y="0px"
	 viewBox="0 0 300 300" style="enable-background:new 0 0 300 300;" xml:space="preserve">
<style type="text/css">
	.st0{fill:#D4605E;}
</style>
<g>
	<path class="st0" d="M220,180.1c-3-1.5-22.6-10.5-25.6-12s-6-1.5-9,1.5s-9,12-12.1,15c-1.5,3-4.5,3-7.5,1.5
		c-10.5-4.5-21.1-10.5-30.1-18c-7.5-7.5-15.1-16.5-21.1-25.5c-1.5-3,0-6,1.5-7.5s3-4.5,6-6c1.5-1.5,3-4.5,3-6c1.5-1.5,1.5-4.5,0-6
		s-9-19.5-12.1-27c-1.5-10.5-4.5-10.5-7.5-10.5H98c-3,0-7.5,3-9,4.5c-9,9-13.6,19.5-13.6,31.5c1.5,13.5,6,27,15.1,39
		c16.6,24,37.7,43.4,63.3,55.4c7.5,3,13.6,6,21.1,7.5c7.5,3,15.1,3,24.1,1.5c10.5-1.5,19.6-9,25.6-18c3-6,3-12,1.5-18L220,180.1
		 M257.7,43.8c-58.8-58.4-153.7-58.4-212.5,0C-3,91.8-12.1,165.2,21.1,223.6L0,300l79.9-21c22.6,12,46.7,18,70.8,18
		c82.9,0,149.2-65.9,149.2-148.3C301.4,109.7,284.8,72.3,257.7,43.8 M217,253.6c-19.6,12-42.2,19.5-66.3,19.5
		c-22.6,0-43.7-6-63.3-16.5l-4.5-3l-46.7,12l12.1-44.9l-3-4.5C9,156.2,27.1,81.3,85.9,43.8s134.1-18,170.3,39
		C292.4,141.2,275.8,217.6,217,253.6"/>
</g>
</svg>
