<?xml version="1.0" encoding="utf-8"?>
<!-- Generator: Adobe Illustrator 26.3.0, SVG Export Plug-In . SVG Version: 6.00 Build 0)  -->
<svg version="1.1" id="Layer_1" xmlns="http://www.w3.org/2000/svg" xmlns:xlink="http://www.w3.org/1999/xlink" x="0px" y="0px"
	 viewBox="0 0 300 300" style="enable-background:new 0 0 300 300;" xml:space="preserve">
<style type="text/css">
	.st0{fill:#13171D;}
	.st1{fill:#D7E5F2;}
	.st2{fill:#D4605E;}
</style>
<rect class="st0" width="300" height="300"/>
<g>
	<path class="st1" d="M21.4,222.3c1.3,6.4,4.5,11.9,8.5,16.9c8.1,10.1,19,16,31.1,19.9c18.6,6.1,37.9,7.7,57.3,8
		c26.2,0.4,48.9-16.4,56.3-41.5c5.8-19.8,13.7-38.6,25-55.9c7.1-10.8,15.1-20.8,24-30.1c2.9-3.1,6.5-3.8,10.1-2.1
		c3.7,1.8,4.9,5,4.9,8.9c0,1.7,0,3.5,0,5.2c2.6-0.2,5-4,8.3-6.1c7.6-4.7,15.1-4.9,22.4-1.2c1.9-10.8,4.1-21.5,6.9-32.2
		c3.1-11.9,3.9-23.8,0.1-35.7c-4.9-15.5-14.1-28.5-25.3-40c-5.2-5.4-14.3-4.1-18.7,2.2c-1,1.4-1.8,3-2.9,4.4
		c-24.5,30.9-48.4,62.3-73.8,92.5c-8.1,9.6-16.4,18.9-26.2,26.8c-9,7.3-19.1,12.5-31,11.6c-6.3-0.5-12.1,0.9-17.9,2.8
		c-0.9,0.3-1.8,0.5-2.6,0.8c-14.9,4.8-29.7,9.8-43.5,17.4c-6.6,3.7-10.8,9.1-12.8,16.4c0,0-0.7,3.8-0.7,5.1
		C21,217.8,21.4,222.3,21.4,222.3z M206.9,83.2c-12.4,21.7-24.4,43.7-38,64.8c-5.8,9-12,17.6-19.7,25.1c-11,10.7-23.8,13.3-38.2,8.5
		c-1.7-0.6-3.3-1.1-5-1.7c-0.2-0.1-0.4-0.3-0.8-0.6c2.5-0.6,4.9-1,7.2-1.6c8.7-2.5,16.1-7.4,22.9-13.2c12-10.3,22.2-22.4,32.1-34.7
		c13.9-17.2,27.6-34.6,41.4-51.9c0.6-0.7,1.1-1.4,1.7-2.1c0.1,0.1,0.3,0.3,0.4,0.4C209.6,78.5,208.3,80.8,206.9,83.2z"/>
	<path class="st2" d="M246.9,152.6c-3.4,2.1-5.7,5.8-8.3,6.1c0,4.9,0,9.7,0,14.6c1,8.7,1.5,17.5,2.4,26.3c0.6,6,3.2,7.3,8.7,4.2
		c1-0.6,1.9-1.4,2.7-2.2c4-4.1,5.7-9.3,6.4-14.8c1.2-9.1,3.4-16,8.5-22.8c0.6-4.2,1.3-8.4,2-12.6
		C262.1,147.7,254.6,147.9,246.9,152.6z"/>
</g>
</svg>
