<svg width="174" height="158" viewBox="0 0 174 158" fill="none" xmlns="http://www.w3.org/2000/svg">
<path d="M128.481 27.5411C118.873 39.6436 109.265 51.7462 99.5646 63.7563C92.6357 72.3482 85.6144 80.7553 77.2073 87.9614C72.4956 92.0264 67.322 95.4446 61.2245 97.2C59.5616 97.6619 57.8986 97.9391 56.1433 98.3086C56.4205 98.4934 56.5129 98.6781 56.6976 98.6781C57.8986 99.0477 59.0073 99.5096 60.2083 99.8792C63.4418 100.988 66.5829 101.542 69.5392 101.542C74.7129 101.634 79.5169 99.9715 83.9514 96.5533C84.9677 95.8142 85.8915 94.9827 86.9078 93.9665C92.2661 88.7005 96.6083 82.6954 100.673 76.5056C110.189 61.8162 118.504 46.4802 127.188 31.3289C128.112 29.666 129.036 28.003 130.052 26.3401C129.96 26.2477 129.867 26.1553 129.775 26.0629C129.22 26.5249 128.851 26.9868 128.481 27.5411Z" fill="#13171D"/>
<path d="M171.348 29.7584C168.022 19.4112 161.925 10.7269 154.442 3.05891C150.931 -0.54414 144.926 0.379718 141.97 4.53708C141.323 5.46094 140.769 6.56956 140.03 7.49342C123.677 28.0954 107.695 49.067 90.7879 69.2071C85.4295 75.5817 79.8864 81.7716 73.327 87.0376C67.3219 91.934 60.5777 95.3523 52.6326 94.798C48.3828 94.5208 44.595 95.3523 40.7148 96.6457C40.1605 96.8305 39.5138 97.0153 38.9595 97.2C28.9818 100.341 19.0965 103.759 9.95034 108.841C5.79298 111.15 3.0214 114.569 1.63562 119.095C1.63562 119.188 1.54323 119.373 1.45085 119.835C0.157444 123.899 1.45085 128.426 2.18993 130.551C2.3747 131.013 2.55947 131.383 2.74425 131.845C3.85288 134.247 5.23866 136.372 6.90161 138.496C12.3524 145.241 19.5585 149.121 27.6884 151.8C40.1605 155.865 53.0021 156.974 65.9361 157.158C83.397 157.436 98.6407 146.257 103.537 129.443C107.417 116.231 112.683 103.667 120.259 92.1188C124.971 84.9127 130.329 78.2609 136.242 72.0711C138.182 70.0386 140.584 69.5767 142.986 70.6853C146.312 72.3482 146.589 75.6741 145.942 79.6467C146.404 79.6467 146.958 79.3696 147.42 79.0924C148.529 78.3533 149.822 77.0599 151.116 76.1361C151.301 75.9513 151.578 75.8589 151.763 75.6741C152.594 75.1198 153.425 74.7503 154.257 74.3807C158.507 72.533 162.664 72.8102 166.729 74.8427H166.821C168.022 67.729 169.501 60.7076 171.348 53.6863C173.381 45.6488 173.843 37.7036 171.348 29.7584ZM127.096 31.2366C118.411 46.3878 110.097 61.7239 100.581 76.4132C96.5158 82.6954 92.2661 88.7005 86.8153 93.8741C85.8915 94.798 84.8752 95.6295 83.859 96.4609C79.4245 99.8792 74.6204 101.542 69.4468 101.45C66.4904 101.45 63.3493 100.895 60.1158 99.7868C58.9148 99.4173 57.8062 99.0477 56.6052 98.5858C56.4204 98.4934 56.328 98.401 56.0508 98.2163C57.8062 97.8467 59.4691 97.5696 61.1321 97.1076C67.2295 95.3523 72.3107 91.934 77.1148 87.8691C85.5219 80.663 92.5432 72.1635 99.4722 63.664C109.173 51.6538 118.781 39.5513 128.389 27.4488C128.758 26.9868 129.22 26.4325 129.59 25.9706C129.682 26.063 129.775 26.1553 129.867 26.2477C128.943 27.9107 128.019 29.5736 127.096 31.2366Z" fill="white"/>
<path d="M166.729 74.7502C162.664 72.7177 158.414 72.4406 154.164 74.1959C153.333 74.5655 152.501 74.935 151.67 75.4893C151.485 75.5817 151.208 75.7665 151.023 75.9513C149.637 76.9675 148.436 78.1685 147.328 78.9076C146.866 79.1848 146.404 79.4619 145.85 79.4619C145.85 79.5543 145.85 79.5543 145.85 79.6467C145.85 79.7391 145.85 79.8315 145.85 79.9238C145.85 83.065 146.127 86.2061 146.127 89.3472C146.773 95.1675 147.143 101.08 147.697 106.9C148.067 110.873 149.822 111.797 153.518 109.764C154.164 109.395 154.811 108.841 155.365 108.286C158.045 105.515 159.153 102.096 159.615 98.401C160.447 92.3035 161.832 87.6842 165.251 83.1573C165.62 80.4782 166.174 77.799 166.636 75.1198C166.636 74.935 166.729 74.8426 166.729 74.7502Z" fill="#D4605E"/>
</svg>
