<?xml version="1.0" encoding="utf-8"?>
<!-- Generator: Adobe Illustrator 25.3.0, SVG Export Plug-In . SVG Version: 6.00 Build 0)  -->
<svg version="1.1" id="Capa_1" xmlns="http://www.w3.org/2000/svg" xmlns:xlink="http://www.w3.org/1999/xlink" x="0px" y="0px"
	 viewBox="0 0 300 300" style="enable-background:new 0 0 300 300;" xml:space="preserve">
<style type="text/css">
	.st0{fill:#FFFFFF;}
	.st1{fill:#4C4B4B;}
	.st2{fill:#E8A7A6;}
</style>
<polygon class="st0" points="7.3,75.5 150,5.3 292.7,75.5 294.2,138.2 294.2,227.1 230.7,257.4 150.7,291.3 5.8,224.1 "/>
<path class="st0" d="M297.1-122.1c0,16.2-13.2,29.4-29.4,29.4H32.4c-16.2,0-29.4-13.2-29.4-29.4v-147.1c0-16.2,13.2-29.4,29.4-29.4
	h235.3c16.2,0,29.4,13.2,29.4,29.4V-122.1z"/>
<g>
	<path class="st1" d="M266.5-90.8h-233c-17.5,0-32-14.6-32-32v-145.6c0-17.5,14.6-32,32-32h233c17.5,0,32,14.6,32,32v145.6
		C298.5-105.4,284-90.8,266.5-90.8z M33.5-294.7C19-294.7,7.3-283,7.3-268.5v145.6c0,14.6,11.6,26.2,26.2,26.2h233
		c14.6,0,26.2-11.6,26.2-26.2v-145.6c0-14.6-11.6-26.2-26.2-26.2C266.5-294.7,33.5-294.7,33.5-294.7z"/>
	<path class="st1" d="M266.5-89.3h-233C15.3-89.3,0-104.7,0-122.9v-145.6C0-286.6,15.3-302,33.5-302h233c18.2,0,33.5,15.3,33.5,33.5
		v145.6C300-104.7,284.7-89.3,266.5-89.3z M33.5-299C17-299,3-285,3-268.5v145.6c0,16.6,14,30.5,30.5,30.5h233
		c16.6,0,30.5-14,30.5-30.5v-145.6c0-16.6-14-30.5-30.5-30.5H33.5z M266.5-95.2h-233c-15.3,0-27.7-12.4-27.7-27.7v-145.6
		c0-15.3,12.4-27.7,27.7-27.7h233c15.3,0,27.7,12.4,27.7,27.7v145.6C294.2-107.6,281.8-95.2,266.5-95.2z M33.5-293.2
		c-13.6,0-24.7,11.1-24.7,24.7v145.6c0,13.6,11.1,24.7,24.7,24.7h233c13.6,0,24.7-11.1,24.7-24.7v-145.6c0-13.6-11.1-24.7-24.7-24.7
		H33.5z"/>
</g>
<g>
	<rect x="2.9" y="-254.5" class="st1" width="294.1" height="44.1"/>
</g>
<g>
	<circle class="st2" cx="194.1" cy="-136.8" r="14.7"/>
</g>
<g>
	<circle class="st2" cx="252.9" cy="-136.8" r="14.7"/>
</g>
<g>
	<circle class="st2" cx="135.3" cy="-136.8" r="14.7"/>
</g>
<polygon class="st2" points="54.8,152.2 52.7,119.3 59.9,88.8 91.1,74.3 171.6,37.3 198.5,26.5 232.8,46.2 216.8,55.8 154.3,85.1 
	101.7,113.6 94.8,126.8 96.5,175.7 89.4,172.5 77.7,146.4 72.7,145.7 62.3,154.3 56.6,160.3 "/>
<path class="st1" d="M185.1,17L149.5,0L1.3,71.5v159.5L150,300l148.6-69.1V71.2L185.1,17z M194.4,32.5l30.1,14.5l-124.1,59l-9.8-4.5
	L67.3,90.2L194.4,32.5z M91.1,118.5v44.4l-9.5-19.3c-1-2-3-3.5-5.2-4c-0.4-0.1-0.8-0.1-1.3-0.1c-1.8,0-3.7,0.7-5,2l-10,9.6
	l-0.1-46.7L91.1,118.5z M149.6,11.1L182.9,27l-128,60.2c-0.6,0.2-1.2,0.4-1.8,0.8l-0.1,0.1l-1.4,0.7L20.4,75.3L149.6,11.1z
	 M144.1,284.3L11.4,224.5V82.7L49.8,100l0.2,57.7c0,2.9,1.8,5.5,4.4,6.6s5.8,0.6,7.8-1.5l11.9-11.5l13.1,26.5c1.3,2.5,3.7,4,6.5,4
	c0.6,0,1.1-0.1,1.7-0.2c3.3-0.8,5.6-3.7,5.6-7.1v-51.8l43,19.3L144.1,284.3L144.1,284.3z M150,133l-42-17.4l128.1-63.1l44.6,21.3
	L150,133z M288.7,224.6L156,284.3V142.2l132.7-59.4V224.6z"/>
</svg>
