<?xml version="1.0" encoding="utf-8"?>
<!-- Generator: Adobe Illustrator 26.3.0, SVG Export Plug-In . SVG Version: 6.00 Build 0)  -->
<svg version="1.1" id="Capa_1" xmlns="http://www.w3.org/2000/svg" xmlns:xlink="http://www.w3.org/1999/xlink" x="0px" y="0px"
	 viewBox="0 0 300 300" style="enable-background:new 0 0 300 300;" xml:space="preserve">
<style type="text/css">
	.st0{fill:#13171D;}
	.st1{fill:#E8A7A6;}
	.st2{fill:none;stroke:#000000;stroke-width:16;stroke-miterlimit:10;}
	.st3{fill:none;stroke:#000000;stroke-width:16;stroke-linecap:round;stroke-miterlimit:10;}
</style>
<path class="st0" d="M510.4-95c-2.1-18.7-4.1-37.4-6.1-56.1c-2.2-20.5-4.5-40.9-6.8-61.4c-2.3-21.1-4.6-42.3-7-63.4
	c-1.3-11.4-9.5-18.5-21-18.6c-3.9,0-7.8-0.2-11.7,0c-2.4,0.1-3.2-0.4-3.1-3c0.3-5.7,0-11.4-1.4-16.9c-7.4-28.2-25.4-45.7-54.3-51.2
	c-25-4.7-52.7,7.8-66.2,29.4c-7.4,11.8-11,24.6-10.6,38.6c0.1,2.4-0.3,3.4-3.1,3.3c-4.1-0.3-8.2-0.2-12.3-0.1
	c-11,0.3-19,7.4-20.4,18.3c-0.9,7.3-1.6,14.5-2.4,21.8c-3.1,27.6-6.1,55.3-9.2,82.9c-2.9,26.6-5.8,53.1-8.8,79.7
	c-0.9,8.2,0.7,15.3,7.3,20.8c2.5,2.1,5.7,2.7,8.4,4.4c70.7,0,141.4,0,212.1,0c0.2-0.2,0.4-0.5,0.6-0.5c7-1.2,11.7-5.2,14.8-11.5
	C511.9-83.9,511-89.4,510.4-95z M364.1-342.7c30.4-18.2,70.7,3,73.2,38.3c0.2,2.4,0.1,4.9,0.3,7.3c0.2,2.1-0.5,2.6-2.5,2.6
	c-13.2-0.1-26.3,0-39.5,0c-2.3,0-4.7,0-7,0c-15.5,0-31,0-46.5,0c-2,0-2.6-0.4-2.6-2.5C339.2-316.8,346.9-332.4,364.1-342.7z
	 M288.4-136.1c3-26.6,5.9-53.1,8.8-79.7c2.1-19.3,4.3-38.6,6.4-57.9c0.3-2.4,1.4-3.5,3.8-3.4c4.2,0.1,8.4,0.1,12.6,0
	c1.8-0.1,2.3,0.4,2.3,2.3c-0.1,8-0.1,16,0,24c0.1,4.4,3.3,7.7,7.6,8.2c3.9,0.5,7.8-2,9.1-5.9c0.5-1.4,0.4-2.9,0.4-4.3
	c0-7.3,0.1-14.6,0-22c0-1.7,0.4-2.3,2.3-2.3c31.2,0.1,62.5,0.1,93.7,0c1.9,0,2.3,0.6,2.2,2.3c-0.1,8-0.1,16,0,24
	c0,3.7,2.1,6.3,5.4,7.6c3.3,1.3,6.4,0.6,9-1.7c2-1.8,2.8-4.1,2.7-6.8c0-7.6,0.1-15.2-0.1-22.8c0-2.1,0.6-2.6,2.6-2.6
	c4.1,0.2,8.2,0.1,12.3,0c2.4,0,3.6,1.1,3.8,3.4c2.5,23.6,5.1,47.1,7.7,70.7c2.4,22.2,4.9,44.4,7.4,66.6c0.4,3.5,0.4,3.5-3.1,3.5
	c-32.4,0-64.8,0-97.3,0c-32.3,0-64.6,0-97,0.1C288.4-132.8,288.1-133.7,288.4-136.1z M488.4-83.9c-33.3,0-66.6,0-99.9,0
	c-33.1,0-66.2,0-99.3,0c-6.1,0-6.4-0.3-5.7-6.3c0.8-7.6,1.7-15.1,2.4-22.7c0.2-2.3,1-2.8,3.2-2.8c29.8,0.1,59.6,0,89.3,0
	c36.3,0,72.6,0,109-0.1c2.7,0,3.6,0.5,3.8,3.4c0.5,7.6,1.5,15.1,2.4,22.7C494.2-84.5,493.7-83.9,488.4-83.9z"/>
<g>
	<path class="st1" d="M-156.3,121.2l-56,56l-24-23.9c-4.5-4.5-11.9-4.5-16.4,0s-4.5,11.9,0,16.4l32.1,32.1c2.2,2.2,5.2,3.4,8.2,3.4
		s5.9-1.2,8.2-3.4l64.3-64.3c4.5-4.5,4.5-11.9,0-16.4C-144.6,116.7-151.9,116.7-156.3,121.2z"/>
	<g>
		<path class="st0" d="M-196.4,311.6c-82.7,0-150-67.3-150-150s67.3-150,150-150s150,67.3,150,150S-113.7,311.6-196.4,311.6z
			 M-196.4,27.4c-74,0-134.2,60.2-134.2,134.2s60.2,134.2,134.2,134.2s134.2-60.2,134.2-134.2S-122.4,27.4-196.4,27.4z"/>
	</g>
</g>
<g>
	<path d="M-310.9,37c35.8,0,69.4,13.9,94.8,39.2c25.3,25.3,39.2,59,39.2,94.8s-13.9,69.4-39.2,94.8c-25.3,25.3-59,39.2-94.8,39.2
		s-69.4-13.9-94.8-39.2c-25.3-25.3-39.2-59-39.2-94.8s13.9-69.4,39.2-94.8C-380.3,50.9-346.7,37-310.9,37 M-310.9,21
		c-82.8,0-150,67.2-150,150s67.2,150,150,150s150-67.2,150-150S-228,21-310.9,21L-310.9,21z"/>
</g>
<path class="st2" d="M-126.6-122.1H86.6c6,0,10.6-5.2,9.8-11.2L71.5-325.2c-0.6-4.9-4.8-8.6-9.8-8.6h-163.4c-5,0-9.2,3.7-9.8,8.6
	l-24.9,191.9C-137.2-127.4-132.6-122.1-126.6-122.1z"/>
<path class="st3" d="M270.5-37.8"/>
<path class="st3" d="M367.5-395.3"/>
<g>
	<g>
		<path class="st0" d="M257.3,300H42.7c-5.2,0-10.1-2.2-13.5-6.1c-3.4-3.9-5-9.1-4.3-14.2l25-193.2c1.2-8.9,8.8-15.7,17.8-15.7
			h164.5c9,0,16.7,6.7,17.8,15.7l25.1,193.2c0.7,5.1-0.9,10.3-4.3,14.2C267.4,297.8,262.5,300,257.3,300z M67.7,86.9
			c-0.9,0-1.8,0.7-1.9,1.6l-25,193.2c-0.1,0.7,0.2,1.2,0.5,1.5c0.3,0.3,0.7,0.6,1.4,0.6h214.6c0.7,0,1.2-0.3,1.4-0.6
			c0.3-0.3,0.5-0.8,0.5-1.5L234.1,88.5c-0.1-0.9-0.9-1.6-1.9-1.6H67.7z"/>
	</g>
	<g>
		<path class="st0" d="M209,36.5C201.3,19.9,184.8,0,150,0S98.7,19.9,91,36.5c-8.1,17.3-8.2,34.5-8.2,35.3c0,0.1,0,0.1,0,0.2l1,45.8
			c0.1,4.4,3.7,7.9,8,7.9c0.1,0,0.1,0,0.2,0c4.4-0.1,8-3.8,7.9-8.2l-1-45.6c0-3.3,1.4-55.6,51.1-55.6c49.8,0,51.1,52.5,51.1,55.6
			l-1,45.6c-0.1,4.4,3.4,8.1,7.9,8.2c0.1,0,0.1,0,0.2,0c4.4,0,7.9-3.5,8-7.9l1-45.8c0-0.1,0-0.1,0-0.2
			C217.2,71.1,217.1,53.9,209,36.5z"/>
	</g>
</g>
<path class="st1" d="M198.9,193.8c-0.6,1.4-0.9,2.9-1.7,4.1c-1.7,2.6-4.4,3.5-7.4,3.5c-10,0-19.9,0-29.9,0c-0.4,0-0.8,0-1.3,0
	c0,0.4,0,0.8,0,1.1c0,10,0,20,0,30.1c0,3.7-1.5,6.6-4.9,8.3c-5,2.5-11.5-1-12.1-6.6c-0.1-0.9-0.1-1.8-0.1-2.8c0-9.6,0-19.3,0-28.9
	c0-0.4,0-0.7,0-1.2c-0.5,0-0.8,0-1.2,0c-10,0-19.9,0-29.9,0c-2.3,0-4.4-0.6-6.3-2.1c-2.4-2.1-3.5-5.7-2.6-8.8c1-3.4,3.8-5.7,7.1-6
	c0.9-0.1,1.8-0.1,2.7-0.1c9.6,0,19.3,0,28.9,0c0.4,0,0.7,0,1.2,0c0-0.5,0-0.8,0-1.2c0-10,0-19.9,0-29.9c0-2.3,0.5-4.3,2-6.1
	c1.4-1.6,3.1-2.6,5.2-3c0.2,0,0.3-0.1,0.4-0.2c0.6,0,1.3,0,1.9,0c0.1,0.1,0.3,0.1,0.4,0.2c2.1,0.4,3.8,1.3,5.2,3
	c1.5,1.8,2,3.9,2,6.1c0,10,0,20,0,30c0,0.4,0,0.7,0,1.1c0.5,0,0.9,0,1.3,0c10,0,19.9,0,29.9,0c3,0,5.7,1,7.4,3.5
	c0.8,1.2,1.2,2.7,1.7,4.1C198.9,192.5,198.9,193.1,198.9,193.8z"/>
</svg>
