<?xml version="1.0" encoding="utf-8"?>
<!-- Generator: Adobe Illustrator 25.3.0, SVG Export Plug-In . SVG Version: 6.00 Build 0)  -->
<svg version="1.1" id="Capa_1" xmlns="http://www.w3.org/2000/svg" xmlns:xlink="http://www.w3.org/1999/xlink" x="0px" y="0px"
	 viewBox="0 0 300 212.6" style="enable-background:new 0 0 300 212.6;" xml:space="preserve">
<style type="text/css">
	.st0{fill:#FFFFFF;}
	.st1{fill:#4C4B4B;}
	.st2{fill:#E8A7A6;}
</style>
<path class="st0" d="M297.1,179.8c0,16.2-13.2,29.4-29.4,29.4H32.4C16.2,209.2,3,196,3,179.8V32.7C3,16.5,16.2,3.3,32.4,3.3h235.3
	c16.2,0,29.4,13.2,29.4,29.4V179.8z"/>
<g>
	<path class="st1" d="M266.5,211.1h-233c-17.5,0-32-14.6-32-32V33.5c0-17.5,14.6-32,32-32h233c17.5,0,32,14.6,32,32v145.6
		C298.5,196.5,284,211.1,266.5,211.1z M33.5,7.2C19,7.2,7.3,18.9,7.3,33.5v145.6c0,14.6,11.6,26.2,26.2,26.2h233
		c14.6,0,26.2-11.6,26.2-26.2V33.5c0-14.6-11.6-26.2-26.2-26.2C266.5,7.2,33.5,7.2,33.5,7.2z"/>
	<path class="st1" d="M266.5,212.6h-233C15.3,212.6,0,197.2,0,179.1V33.5C0,15.3,15.3,0,33.5,0h233C284.7,0,300,15.3,300,33.5v145.6
		C300,197.2,284.7,212.6,266.5,212.6z M33.5,2.9C17,2.9,3,16.9,3,33.5v145.6c0,16.6,14,30.5,30.5,30.5h233c16.6,0,30.5-14,30.5-30.5
		V33.5C297,16.9,283,3,266.5,3L33.5,2.9L33.5,2.9z M266.5,206.8h-233c-15.3,0-27.7-12.4-27.7-27.7V33.5c0-15.3,12.4-27.7,27.7-27.7
		h233c15.3,0,27.7,12.4,27.7,27.7v145.6C294.2,194.3,281.8,206.8,266.5,206.8z M33.5,8.7C19.9,8.7,8.8,19.8,8.8,33.4V179
		c0,13.6,11.1,24.7,24.7,24.7h233c13.6,0,24.7-11.1,24.7-24.7V33.5c0-13.6-11.1-24.7-24.7-24.7L33.5,8.7L33.5,8.7z"/>
</g>
<g>
	<rect x="2.9" y="47.4" class="st1" width="294.1" height="44.1"/>
</g>
<g>
	<circle class="st2" cx="194.1" cy="165.1" r="14.7"/>
</g>
<g>
	
		<ellipse transform="matrix(0.1602 -0.9871 0.9871 0.1602 49.4218 388.2883)" class="st2" cx="252.9" cy="165.1" rx="14.7" ry="14.7"/>
</g>
<g>
	<circle class="st2" cx="135.3" cy="165.1" r="14.7"/>
</g>
</svg>
