<?xml version="1.0" encoding="utf-8"?>
<!-- Generator: Adobe Illustrator 25.3.0, SVG Export Plug-In . SVG Version: 6.00 Build 0)  -->
<svg version="1.1" id="Capa_1" xmlns="http://www.w3.org/2000/svg" xmlns:xlink="http://www.w3.org/1999/xlink" x="0px" y="0px"
	 viewBox="0 0 300 300" style="enable-background:new 0 0 300 300;" xml:space="preserve">
<style type="text/css">
	.st0{fill:#FFFFFF;}
	.st1{fill:#4C4B4B;}
	.st2{fill:#E8A7A6;}
	.st3{fill:#13171D;}
</style>
<path class="st2" d="M190.1,109.6l-56,56l-24-23.9c-4.5-4.5-11.9-4.5-16.4,0s-4.5,11.9,0,16.4l32.1,32.1c2.2,2.2,5.2,3.4,8.2,3.4
	s5.9-1.2,8.2-3.4l64.3-64.3c4.5-4.5,4.5-11.9,0-16.4C201.8,105.1,194.5,105.1,190.1,109.6z"/>
<g>
	<path class="st3" d="M150,300C67.3,300,0,232.7,0,150S67.3,0,150,0c82.7,0,150,67.3,150,150S232.7,300,150,300z M150,15.8
		C76,15.8,15.8,76,15.8,150c0,74,60.2,134.2,134.2,134.2S284.2,224,284.2,150C284.2,76,224,15.8,150,15.8z"/>
</g>
</svg>
