<?xml version="1.0" encoding="utf-8"?>
<!-- Generator: Adobe Illustrator 25.3.0, SVG Export Plug-In . SVG Version: 6.00 Build 0)  -->
<svg version="1.1" id="Capa_1" xmlns="http://www.w3.org/2000/svg" xmlns:xlink="http://www.w3.org/1999/xlink" x="0px" y="0px"
	 viewBox="0 0 300 300" style="enable-background:new 0 0 300 300;" xml:space="preserve">
<style type="text/css">
	.st0{fill:#E8A7A6;}
	.st1{fill:#13171D;}
</style>
<polygon class="st0" points="44.8,248.4 40.8,282.7 58.2,289.7 220.1,286.6 250.2,286.6 260,279.1 257.4,255.3 250.2,248.4 
	158.4,242.2 "/>
<path class="st1" d="M271.9,271.6c-2.1-18.7-4.1-37.4-6.1-56.1c-2.2-20.5-4.5-40.9-6.8-61.4c-2.3-21.1-4.6-42.3-7-63.4
	c-1.3-11.4-9.5-18.5-21-18.6c-3.9,0-7.8-0.2-11.7,0c-2.4,0.1-3.2-0.4-3.1-3c0.3-5.7,0-11.4-1.4-16.9C207.4,24,189.4,6.5,160.5,1
	c-25-4.7-52.7,7.8-66.2,29.4c-7.4,11.8-11,24.6-10.6,38.6c0.1,2.4-0.3,3.4-3.1,3.3c-4.1-0.3-8.2-0.2-12.3-0.1
	c-11,0.3-19,7.4-20.4,18.3c-0.9,7.3-1.6,14.5-2.4,21.8c-3.1,27.6-6.1,55.3-9.2,82.9c-2.9,26.6-5.8,53.1-8.8,79.7
	c-0.9,8.2,0.7,15.3,7.3,20.8c2.5,2.1,5.7,2.7,8.4,4.4c70.7,0,141.4,0,212.1,0c0.2-0.2,0.4-0.5,0.6-0.5c7-1.2,11.7-5.2,14.8-11.5
	C273.4,282.7,272.5,277.2,271.9,271.6z M125.6,23.9c30.4-18.2,70.7,3,73.2,38.3c0.2,2.4,0.1,4.9,0.3,7.3c0.2,2.1-0.5,2.6-2.5,2.6
	c-13.2-0.1-26.3,0-39.5,0c-2.3,0-4.7,0-7,0c-15.5,0-31,0-46.5,0c-2,0-2.6-0.4-2.6-2.5C100.7,49.8,108.4,34.2,125.6,23.9z
	 M49.9,230.5c3-26.6,5.9-53.1,8.8-79.7c2.1-19.3,4.3-38.6,6.4-57.9c0.3-2.4,1.4-3.5,3.8-3.4c4.2,0.1,8.4,0.1,12.6,0
	c1.8-0.1,2.3,0.4,2.3,2.3c-0.1,8-0.1,16,0,24c0.1,4.4,3.3,7.7,7.6,8.2c3.9,0.5,7.8-2,9.1-5.9c0.5-1.4,0.4-2.9,0.4-4.3
	c0-7.3,0.1-14.6,0-22c0-1.7,0.4-2.3,2.3-2.3c31.2,0.1,62.5,0.1,93.7,0c1.9,0,2.3,0.6,2.2,2.3c-0.1,8-0.1,16,0,24
	c0,3.7,2.1,6.3,5.4,7.6c3.3,1.3,6.4,0.6,9-1.7c2-1.8,2.8-4.1,2.7-6.8c0-7.6,0.1-15.2-0.1-22.8c0-2.1,0.6-2.6,2.6-2.6
	c4.1,0.2,8.2,0.1,12.3,0c2.4,0,3.6,1.1,3.8,3.4c2.5,23.6,5.1,47.1,7.7,70.7c2.4,22.2,4.9,44.4,7.4,66.6c0.4,3.5,0.4,3.5-3.1,3.5
	c-32.4,0-64.8,0-97.3,0c-32.3,0-64.6,0-97,0.1C49.9,233.8,49.6,232.9,49.9,230.5z M249.9,282.7c-33.3,0-66.6,0-99.9,0
	c-33.1,0-66.2,0-99.3,0c-6.1,0-6.4-0.3-5.7-6.3c0.8-7.6,1.7-15.1,2.4-22.7c0.2-2.3,1-2.8,3.2-2.8c29.8,0.1,59.6,0,89.3,0
	c36.3,0,72.6,0,109-0.1c2.7,0,3.6,0.5,3.8,3.4c0.5,7.6,1.5,15.1,2.4,22.7C255.7,282.1,255.2,282.7,249.9,282.7z"/>
</svg>
