<?xml version="1.0" encoding="utf-8"?>
<!-- Generator: Adobe Illustrator 25.3.0, SVG Export Plug-In . SVG Version: 6.00 Build 0)  -->
<svg version="1.1" id="Capa_1" xmlns="http://www.w3.org/2000/svg" xmlns:xlink="http://www.w3.org/1999/xlink" x="0px" y="0px"
	 viewBox="0 0 251.2 300" style="enable-background:new 0 0 251.2 300;" xml:space="preserve">
<style type="text/css">
	.st0{fill:#4C4B4B;}
	.st1{fill:#E8A7A6;}
</style>
<path class="st0" d="M250.9,78c-0.1-8.1-0.3-15.7-0.3-23.1c0-5.8-4.7-10.5-10.5-10.5c-44.8,0-78.8-12.9-107.2-40.5
	C128.8,0,122.3,0,118.3,4C89.9,31.5,55.8,44.4,11.1,44.4c-5.8,0-10.5,4.7-10.5,10.5c0,7.4-0.1,15-0.3,23.1
	c-1.4,75.2-3.4,178,121.9,221.4c1.1,0.4,2.3,0.6,3.4,0.6s2.3-0.2,3.4-0.6C254.3,256,252.3,153.1,250.9,78z M125.6,278.4
	c-107.4-39-105.8-124.5-104.4-200c0.1-4.5,0.1-8.9,0.2-13.2c41.9-1.8,75.4-14.5,104.1-39.5c28.7,25,62.2,37.7,104.1,39.5
	c0.1,4.3,0.1,8.7,0.2,13.2C231.4,153.9,233,239.4,125.6,278.4z"/>
<path class="st1" d="M161.7,114.2l-50.5,50.5l-21.6-21.5c-4.1-4.1-10.7-4.1-14.8,0s-4.1,10.7,0,14.8l28.9,28.9c2,2,4.7,3.1,7.4,3.1
	s5.3-1.1,7.4-3.1l57.9-57.9c4.1-4.1,4.1-10.7,0-14.8S165.7,110.1,161.7,114.2z"/>
</svg>
