<?xml version="1.0" encoding="utf-8"?>
<!-- Generator: Adobe Illustrator 25.3.0, SVG Export Plug-In . SVG Version: 6.00 Build 0)  -->
<svg version="1.1" id="Capa_1" xmlns="http://www.w3.org/2000/svg" xmlns:xlink="http://www.w3.org/1999/xlink" x="0px" y="0px"
	 viewBox="0 0 30 30" style="enable-background:new 0 0 30 30;" xml:space="preserve">
<style type="text/css">
	.st0{fill:#FFF6DC;}
</style>
<path class="st0" d="M30,14.7c-0.1-5.2-2.9-9.8-7-12.4c-2.3-1.4-5-2.3-8-2.3c-3,0-5.7,0.9-8.1,2.3C2.8,5,0,9.7,0,15
	c0,0.2,0,0.4,0,0.6c0.2,4.2,2.1,8,5,10.6c2.6,2.4,6.1,3.8,10,3.8c3.5,0,6.7-1.2,9.2-3.2c3.5-2.7,5.8-7,5.8-11.8
	C30,14.9,30,14.8,30,14.7z M15,14.6C15,14.6,15,14.6,15,14.6C15,14.6,15,14.6,15,14.6C15,14.6,15,14.6,15,14.6z"/>
</svg>
