<?xml version="1.0" encoding="utf-8"?>
<!-- Generator: Adobe Illustrator 25.3.0, SVG Export Plug-In . SVG Version: 6.00 Build 0)  -->
<svg version="1.1" xmlns="http://www.w3.org/2000/svg" xmlns:xlink="http://www.w3.org/1999/xlink" x="0px" y="0px"
	 viewBox="0 0 60 60" style="enable-background:new 0 0 60 60;" xml:space="preserve">
<style type="text/css">
	.st0{fill:#010202;}
</style>
<g id="Capa_2">
	<path class="st0" d="M60,29.5C59.8,19,54.2,9.8,45.9,4.6C41.3,1.7,35.8,0,30,0c-5.9,0-11.4,1.7-16.1,4.7C5.5,10,0,19.4,0,30
		c0,0.4,0,0.9,0,1.3c0.4,8.4,4.2,15.9,10.1,21.2C15.4,57.1,22.4,60,30,60c7,0,13.4-2.4,18.5-6.4c7-5.5,11.5-14,11.5-23.6
		C60,29.8,60,29.6,60,29.5z M30.1,29.2C30.1,29.2,30.1,29.2,30.1,29.2C30.1,29.2,30.1,29.2,30.1,29.2C30.1,29.2,30.1,29.2,30.1,29.2
		z"/>
</g>
<g id="Capa_1">
	<path class="st0" d="M60,29.5C59.8,19,54.2,9.8,45.9,4.6C41.3,1.7,35.8,0,30,0c-5.9,0-11.4,1.7-16.1,4.7C5.5,10,0,19.4,0,30
		c0,0.4,0,0.9,0,1.3c0.4,8.4,4.2,15.9,10.1,21.2C15.4,57.1,22.4,60,30,60c7,0,13.4-2.4,18.5-6.4c7-5.5,11.5-14,11.5-23.6
		C60,29.8,60,29.6,60,29.5z M30.1,29.2C30.1,29.2,30.1,29.2,30.1,29.2C30.1,29.2,30.1,29.2,30.1,29.2C30.1,29.2,30.1,29.2,30.1,29.2
		z"/>
</g>
</svg>
