<?xml version="1.0" encoding="utf-8"?>
<!-- Generator: Adobe Illustrator 25.3.0, SVG Export Plug-In . SVG Version: 6.00 Build 0)  -->
<svg version="1.1" id="Capa_1" xmlns="http://www.w3.org/2000/svg" xmlns:xlink="http://www.w3.org/1999/xlink" x="0px" y="0px"
	 viewBox="0 0 30 30" style="enable-background:new 0 0 30 30;" xml:space="preserve">
<style type="text/css">
	.st0{fill:#E28B28;}
	.st1{fill:#EEA22C;}
	.st2{fill:#D46D34;}
	.st3{fill:#F28E2F;}
	.st4{fill:#DD722D;}
	.st5{fill:#E17A39;}
</style>
<g>
	<path class="st0" d="M15,14.6C15,14.6,15,14.6,15,14.6c6.7-2.2,7.8-10.5,7.9-12.3c-2.3-1.4-5-2.3-8-2.3c-3,0-5.7,0.9-8.1,2.3
		C8.5,3.3,15.1,7.5,15,14.6z"/>
	<path class="st1" d="M14.9,14.5c0,0,0.1,0,0.1,0.1C15.1,7.5,8.5,3.3,6.9,2.3C2.8,5,0,9.7,0,15c0,0.2,0,0.4,0,0.6
		C1.9,14.4,9.2,10.3,14.9,14.5z"/>
	<path class="st2" d="M15,14.6c5.8,4.3,13.3,0.9,15,0.1c-0.1-5.2-2.9-9.8-7-12.4C22.8,4.1,21.7,12.4,15,14.6z"/>
	<path class="st3" d="M14.5,14.8c0.2,0,0.3-0.1,0.5-0.2c0,0,0,0,0,0c0,0-0.1,0-0.1-0.1c-5.7-4.3-13-0.1-14.9,1.1
		c0.2,4.2,2.1,8,5,10.6C5.5,24.2,7.6,16.6,14.5,14.8z"/>
	<path class="st4" d="M15,14.6C15,14.6,15,14.6,15,14.6c0,0.1,0,0.3,0,0.4c-0.3,7.3,7.4,11.1,9.2,11.8c3.5-2.7,5.8-7,5.8-11.8
		c0-0.1,0-0.2,0-0.3C28.4,15.5,20.9,18.9,15,14.6z"/>
	<path class="st5" d="M15,15c0-0.1,0-0.3,0-0.4c-0.2,0.1-0.3,0.1-0.5,0.2c-6.9,1.9-9,9.4-9.5,11.5c2.6,2.4,6.1,3.8,10,3.8
		c3.5,0,6.7-1.2,9.2-3.2C22.4,26,14.7,22.3,15,15z"/>
</g>
</svg>
