<?xml version="1.0" encoding="utf-8"?>
<!-- Generator: Adobe Illustrator 25.3.0, SVG Export Plug-In . SVG Version: 6.00 Build 0)  -->
<svg version="1.1" xmlns="http://www.w3.org/2000/svg" xmlns:xlink="http://www.w3.org/1999/xlink" x="0px" y="0px"
	 viewBox="0 0 60 60" style="enable-background:new 0 0 60 60;" xml:space="preserve">
<style type="text/css">
	.st0{fill:#8D76B4;}
	.st1{fill:#563686;}
	.st2{fill:#AA88B8;}
	.st3{fill:#9065A8;}
	.st4{fill:#BB91C2;}
	.st5{fill:#826AAD;}
</style>
<g id="Capa_2">
	<path class="st0" d="M60,29.5C59.8,19,54.2,9.8,45.9,4.6C41.3,1.7,35.8,0,30,0c-5.9,0-11.4,1.7-16.1,4.7C5.5,10,0,19.4,0,30
		c0,0.4,0,0.9,0,1.3c0.4,8.4,4.2,15.9,10.1,21.2C15.4,57.1,22.4,60,30,60c7,0,13.4-2.4,18.5-6.4c7-5.5,11.5-14,11.5-23.6
		C60,29.8,60,29.6,60,29.5z M30.1,29.2C30.1,29.2,30.1,29.2,30.1,29.2C30.1,29.2,30.1,29.2,30.1,29.2C30.1,29.2,30.1,29.2,30.1,29.2
		z"/>
</g>
<g id="Capa_1">
	<g>
		<path class="st1" d="M30.1,29.2C30.1,29.2,30.1,29.2,30.1,29.2c13.4-4.4,15.5-21,15.8-24.6C41.3,1.7,35.8,0,30,0
			c-5.9,0-11.4,1.7-16.1,4.7C17,6.5,30.2,15,30.1,29.2z"/>
		<path class="st2" d="M29.9,29.1c0.1,0.1,0.1,0.1,0.2,0.1C30.2,15,17,6.5,13.9,4.7C5.5,10,0,19.4,0,30c0,0.4,0,0.9,0,1.3
			C3.8,28.9,18.4,20.5,29.9,29.1z"/>
		<path class="st3" d="M30.1,29.2c11.7,8.5,26.7,1.9,29.9,0.3C59.8,19,54.2,9.8,45.9,4.6C45.6,8.2,43.5,24.8,30.1,29.2z"/>
		<path class="st4" d="M29.1,29.5c0.3-0.1,0.7-0.2,1-0.3c0,0,0,0,0,0c-0.1-0.1-0.1-0.1-0.2-0.1C18.4,20.5,3.8,28.9,0,31.3
			c0.4,8.4,4.2,15.9,10.1,21.2C11,48.4,15.2,33.3,29.1,29.5z"/>
		<path class="st5" d="M30.1,29.2C30.1,29.2,30.1,29.2,30.1,29.2c0,0.3,0,0.5,0,0.8c-0.7,14.7,14.8,22.1,18.4,23.7
			c7-5.5,11.5-14,11.5-23.6c0-0.2,0-0.4,0-0.5C56.7,31.1,41.8,37.7,30.1,29.2z"/>
		<path class="st0" d="M30.1,30c0-0.3,0-0.5,0-0.8c-0.3,0.1-0.6,0.2-1,0.3c-13.8,3.8-18.1,18.9-19,22.9C15.4,57.1,22.4,60,30,60
			c7,0,13.4-2.4,18.5-6.4C44.8,52.1,29.4,44.7,30.1,30z"/>
	</g>
</g>
</svg>
